<?xml version="1.0" encoding="utf-8"?>
<svg viewBox="0 0 500 500" width="500" height="500" xmlns="http://www.w3.org/2000/svg">
  <path d="M 249.153 482.915 Q 166.353 482.915 129.153 433.115 Q 91.953 383.315 91.953 288.515 L 91.953 35.915 L 159.153 35.915 L 159.153 289.715 Q 159.153 359.915 180.153 390.215 Q 201.153 420.515 249.153 420.515 Q 297.153 420.515 317.853 390.815 Q 338.553 361.115 338.553 289.715 L 338.553 35.915 L 406.353 35.915 L 406.353 288.515 Q 406.353 382.715 367.053 432.815 Q 327.753 482.915 249.153 482.915 Z" style="fill: rgb(232, 180, 38); white-space: pre;"/>
  <path d="M 204.401 429.819 L 108.989 429.819 L 108.989 83.741 L 279.144 83.741 Q 303.177 83.741 325.528 89.389 Q 347.879 95.036 365.063 107.173 Q 382.247 119.31 392.461 138.537 Q 402.675 157.763 402.675 185.161 Q 402.675 206.551 393.662 225.417 Q 384.65 244.283 369.629 259.063 Q 354.608 273.844 335.142 283.577 Q 315.675 293.31 294.766 296.435 Q 304.139 312.297 314.353 326.476 Q 324.567 340.656 335.021 353.033 Q 345.476 365.41 355.81 375.864 Q 366.144 386.319 375.517 394.971 Q 397.628 415.159 419.258 429.819 L 300.293 429.819 Q 285.873 416.12 272.896 396.894 Q 261.84 380.551 250.665 356.398 Q 239.489 332.244 233.481 300.52 L 204.401 300.52 Z M 305.821 185.161 Q 305.821 150.313 288.878 133.97 Q 271.934 117.628 238.047 117.628 L 204.401 117.628 L 204.401 267.835 L 238.047 267.835 Q 256.072 267.835 268.93 260.986 Q 281.788 254.136 289.959 242.721 Q 298.13 231.305 301.976 216.404 Q 305.821 201.504 305.821 185.161 Z" style="fill: rgb(51, 51, 51); white-space: pre;"/>
</svg>
